<svg xmlns="http://www.w3.org/2000/svg" height="800" width="1200" viewBox="-4.08654 -8.402675 35.41668 50.41605"><defs><linearGradient gradientUnits="userSpaceOnUse" gradientTransform="matrix(.27962 0 0 .25036 47.6134 60.9685)" id="a" x1="40.6878" x2="40.6878" y1="0" y2="81.3758"><stop offset="0%" stop-color="#FF373C"/><stop offset="100%" stop-color="#FFC72C"/></linearGradient></defs><path d="M18.3843 27.0007v-2.5164h-1.276v.2815a.0307.0307 0 00-.01-.007 2.7101 2.7101 0 00-1.379-.3699c-1.4746 0-2.6552 1.1578-2.6552 2.6122A2.5969 2.5969 0 0014 28.9961a2.577 2.577 0 00-.9358 1.9926c0 1.442 1.1806 2.622 2.6551 2.622 1.4843 0 2.6649-1.18 2.6649-2.622a2.5728 2.5728 0 00-.9356-1.9926 2.589 2.589 0 00.9356-1.995zm-4.0439 0c0-.7368.6197-1.3684 1.379-1.3684.7152 0 1.3007.5458 1.379 1.2144.007.0511.01.1024.01.154 0 .0513-.002.105-.01.1543-.0783.6781-.6638 1.224-1.379 1.224-.7593 0-1.379-.6316-1.379-1.3785zm2.758 4.1442c-.0783.6784-.6638 1.224-1.379 1.224-.7593 0-1.379-.6313-1.379-1.3806 0-.7366.6197-1.3682 1.379-1.3682.7152 0 1.3007.5458 1.379 1.2142.007.0513.01.1026.01.154 0 .054-.002.1055-.01.1566zm8.85-4.3352c0-.9684-.5159-1.179-1.032-1.179-.516 0-1.0325.2-1.0325 1.1581v2.6945h-1.2951v-4.9998h1.2951v.3683c.2845-.2106.6321-.463 1.3166-.463 1.0954 0 2.0431.6418 2.0431 2.2103v2.8842h-1.2951zm-6.1401 2.6736h1.2954v-4.9998h-1.2954zm-9.2551 0h1.2951v-4.9998h-1.2951zM6.372 24.4835h1.2954v.3683c.4844-.358.9585-.463 1.9274-.463v1.242c-1.6536 0-1.9274.463-1.9274 1.326v2.5265H6.372zM2.654 29.62C1.1795 29.62 0 28.441 0 26.999c0-1.4525 1.1795-2.6106 2.6538-2.6106 1.4853 0 2.6648 1.1578 2.6648 2.6106 0 1.442-1.1795 2.621-2.6646 2.621zm0-3.9894c-.7583 0-1.3798.6316-1.3798 1.3684 0 .7472.6215 1.3788 1.3798 1.3788.769 0 1.3902-.6316 1.3902-1.3788 0-.7368-.6213-1.3684-1.3902-1.3684z" fill="#ff373c" fill-rule="evenodd"/><path d="M58.9905 60.9685c-4.9186-.004-9.2816 3.13-10.8122 7.767-1.5304 4.6366.1196 9.724 4.0883 12.6059 4.0018-2.9125 9.446-2.9125 13.4477 0 3.9688-2.8819 5.6187-7.9693 4.0884-12.6058-1.5306-4.6371-5.8936-7.7714-10.8122-7.7671zm0 17.0365c-3.2039-.003-5.7994-2.5802-5.7986-5.7584.001-3.178 2.5982-5.7542 5.8018-5.7547 3.204-.001 5.8023 2.5736 5.805 5.7515a5.7333 5.7333 0 01-1.6998 4.0754 5.8272 5.8272 0 01-4.1084 1.6862z" fill="url(#a)" transform="translate(-45.3425 -60.9685)"/></svg>